<svg width="16" height="16" viewBox="0 0 16 16" fill="none" xmlns="http://www.w3.org/2000/svg">
<g clip-path="url(#clip0_1_3543)">
<path d="M13.2128 2.12396H10.5578V1.59297C10.5581 1.3837 10.5171 1.17643 10.4371 0.983037C10.3572 0.789642 10.2398 0.613924 10.0919 0.465948C9.94389 0.317971 9.76817 0.200645 9.57478 0.120689C9.38138 0.0407343 9.17411 -0.000278167 8.96484 1.41989e-06H6.84089C6.63162 -0.000278167 6.42435 0.0407343 6.23095 0.120689C6.03756 0.200645 5.86184 0.317971 5.71386 0.465948C5.56589 0.613924 5.44856 0.789642 5.36861 0.983037C5.28865 1.17643 5.24764 1.3837 5.24792 1.59297V2.12396H2.59297C2.3837 2.12368 2.17643 2.16469 1.98304 2.24465C1.78964 2.3246 1.61392 2.44193 1.46595 2.58991C1.31797 2.73788 1.20064 2.9136 1.12069 3.10699C1.04073 3.30039 0.999722 3.50766 1 3.71693V4.77891C1.00021 5.10773 1.10249 5.42838 1.29271 5.69659C1.48293 5.96481 1.75173 6.16736 2.06198 6.2763V14.3367C2.0617 14.546 2.10271 14.7533 2.18267 14.9466C2.26262 15.14 2.37995 15.3158 2.52793 15.4637C2.6759 15.6117 2.85162 15.729 3.04502 15.809C3.23841 15.889 3.44568 15.93 3.65495 15.9297H12.1508C12.3601 15.93 12.5673 15.889 12.7607 15.809C12.9541 15.729 13.1298 15.6117 13.2778 15.4637C13.4258 15.3158 13.5431 15.14 13.6231 14.9466C13.703 14.7533 13.744 14.546 13.7437 14.3367V6.2763C14.054 6.16736 14.3228 5.96481 14.513 5.69659C14.7032 5.42838 14.8055 5.10773 14.8057 4.77891V3.71693C14.806 3.50766 14.765 3.30039 14.685 3.10699C14.6051 2.9136 14.4878 2.73788 14.3398 2.58991C14.1918 2.44193 14.0161 2.3246 13.8227 2.24465C13.6293 2.16469 13.422 2.12368 13.2128 2.12396ZM4.71693 12.2128V9.02682C4.71693 8.88599 4.77287 8.75094 4.87245 8.65136C4.97203 8.55178 5.10709 8.49583 5.24792 8.49583C5.38874 8.49583 5.5238 8.55178 5.62338 8.65136C5.72296 8.75094 5.77891 8.88599 5.77891 9.02682V12.2128C5.77891 12.3536 5.72296 12.4886 5.62338 12.5882C5.5238 12.6878 5.38874 12.7437 5.24792 12.7437C5.10709 12.7437 4.97203 12.6878 4.87245 12.5882C4.77287 12.4886 4.71693 12.3536 4.71693 12.2128ZM7.37188 12.2128V9.02682C7.37188 8.88599 7.42782 8.75094 7.5274 8.65136C7.62698 8.55178 7.76204 8.49583 7.90286 8.49583C8.04369 8.49583 8.17875 8.55178 8.27833 8.65136C8.37791 8.75094 8.43385 8.88599 8.43385 9.02682V12.2128C8.43385 12.3536 8.37791 12.4886 8.27833 12.5882C8.17875 12.6878 8.04369 12.7437 7.90286 12.7437C7.76204 12.7437 7.62698 12.6878 7.5274 12.5882C7.42782 12.4886 7.37188 12.3536 7.37188 12.2128ZM11.0888 12.2128C11.0888 12.3536 11.0329 12.4886 10.9333 12.5882C10.8337 12.6878 10.6986 12.7437 10.5578 12.7437C10.417 12.7437 10.2819 12.6878 10.1823 12.5882C10.0828 12.4886 10.0268 12.3536 10.0268 12.2128V9.02682C10.0268 8.88599 10.0828 8.75094 10.1823 8.65136C10.2819 8.55178 10.417 8.49583 10.5578 8.49583C10.6986 8.49583 10.8337 8.55178 10.9333 8.65136C11.0329 8.75094 11.0888 8.88599 11.0888 9.02682V12.2128Z" fill="#747A8E"/>
</g>
<defs>
<clipPath id="clip0_1_3543">
<rect width="16" height="16" fill="white"/>
</clipPath>
</defs>
</svg>
