<svg xmlns="http://www.w3.org/2000/svg" width="20" height="20" viewBox="0 0 20 20" fill="none">
  <g clip-path="url(#clip0_3716_30783)">
    <path d="M16.3769 7.53333L12.3436 7.18333L10.7686 3.475C10.4852 2.8 9.51856 2.8 9.23522 3.475L7.66022 7.19167L3.63522 7.53333C2.90189 7.59167 2.60189 8.50833 3.16022 8.99167L6.21856 11.6417L5.30189 15.575C5.13523 16.2917 5.91022 16.8583 6.54356 16.475L10.0019 14.3917L13.4602 16.4833C14.0936 16.8667 14.8686 16.3 14.7019 15.5833L13.7852 11.6417L16.8436 8.99167C17.4019 8.50833 17.1102 7.59167 16.3769 7.53333ZM10.0019 12.8333L6.86856 14.725L7.70189 11.1583L4.93523 8.75833L8.58522 8.44167L10.0019 5.08333L11.4269 8.45L15.0769 8.76667L12.3102 11.1667L13.1436 14.7333L10.0019 12.8333Z" fill="#747A8E"/>
  </g>
  <defs>
    <clipPath id="clip0_3716_30783">
      <rect width="20" height="20" fill="white"/>
    </clipPath>
  </defs>
</svg>